<svg version="1.1" xmlns="http://www.w3.org/2000/svg" xmlns:xlink="http://www.w3.org/1999/xlink" width="105.6615" height="103.61139" viewBox="0,0,105.6615,103.61139"><g transform="translate(-210.01111,-114.53574)"><g data-paper-data="{&quot;isPaintingLayer&quot;:true}" fill="none" fill-rule="nonzero" stroke="#000000" stroke-width="1.5" stroke-linecap="butt" stroke-linejoin="miter" stroke-miterlimit="10" stroke-dasharray="" stroke-dashoffset="0" font-family="none" font-weight="none" font-size="none" text-anchor="none" style="mix-blend-mode: normal"><path d="M238.13895,160.41909c0,11.54796 23.27502,-7.95832 27.65978,5.148c3.18857,9.53082 -47.67379,19.95568 -50.72281,3.50064c-2.88714,-15.58139 45.5083,-50.45038 45.5083,-50.45038c0,0 -22.44527,26.90358 -22.44527,41.80174z" data-paper-data="{&quot;origPos&quot;:null}" fill="#3a323a"/><path d="M253.27477,146.88816c-8.16564,8.16564 22.08531,10.83054 15.91824,23.1986c-4.48465,8.99397 -47.82126,-19.59966 -38.34177,-33.39112c8.97619,-13.05922 67.85303,-3.49458 67.85303,-3.49458c0,0 -34.89491,3.1525 -45.4295,13.68709z" data-paper-data="{&quot;origPos&quot;:null,&quot;origRot&quot;:0}" fill="#3a323a"/><path d="M269.78926,144.27212c-11.54796,0 7.95832,23.27502 -5.14799,27.65978c-9.53083,3.18857 -19.95568,-47.67379 -3.50064,-50.72281c15.58139,-2.88713 50.45038,45.5083 50.45038,45.5083c0,0 -26.90358,-22.44527 -41.80174,-22.44527z" data-paper-data="{&quot;origPos&quot;:null,&quot;origRot&quot;:0}" fill="#3a323a"/><path d="M283.81139,154.75338c-8.16564,-8.16564 -10.83054,22.08531 -23.1986,15.91824c-8.99397,-4.48465 19.59966,-47.82126 33.39112,-38.34177c13.05922,8.97619 3.49458,67.85303 3.49458,67.85303c0,0 -3.1525,-34.89491 -13.68709,-45.4295z" data-paper-data="{&quot;origPos&quot;:null,&quot;origRot&quot;:0}" fill="#3a323a"/><path d="M287.02693,172.26378c0,-11.54796 -23.27502,7.95832 -27.65978,-5.14799c-3.18857,-9.53082 47.67379,-19.95568 50.72281,-3.50064c2.88713,15.58138 -45.5083,50.45038 -45.5083,50.45038c0,0 22.44527,-26.90358 22.44527,-41.80175z" data-paper-data="{&quot;origPos&quot;:null,&quot;origRot&quot;:0}" fill="#3a323a"/><path d="M274.4592,188.1422c8.16564,-8.16564 -22.08531,-10.83054 -15.91824,-23.1986c4.48465,-8.99397 47.82126,19.59967 38.34177,33.39112c-8.97619,13.05921 -67.85303,3.49457 -67.85303,3.49457c0,0 34.89491,-3.1525 45.4295,-13.68709z" data-paper-data="{&quot;origPos&quot;:null,&quot;origRot&quot;:0}" fill="#3a323a"/><path d="M255.89447,188.9396c11.54796,0 -7.95832,-23.27502 5.14799,-27.65978c9.53082,-3.18857 19.95568,47.67379 3.50064,50.72281c-15.58138,2.88713 -50.45038,-45.5083 -50.45038,-45.5083c0,0 26.90358,22.44527 41.80175,22.44527z" data-paper-data="{&quot;origPos&quot;:null,&quot;origRot&quot;:0}" fill="#3a323a"/><path d="M243.1071,177.75366c8.16564,8.16564 10.83054,-22.08531 23.1986,-15.91824c8.99397,4.48465 -19.59967,47.82126 -33.39112,38.34177c-13.05922,-8.97619 -3.49458,-67.85303 -3.49458,-67.85303c0,0 3.1525,34.89491 13.6871,45.4295z" data-paper-data="{&quot;origPos&quot;:null,&quot;origRot&quot;:0}" fill="#3a323a"/><path d="M246.26413,168.48656c0,-8.48995 6.88247,-15.37242 15.37242,-15.37242c8.48995,0 15.37242,6.88247 15.37242,15.37242c0,8.48995 -6.88247,15.37242 -15.37242,15.37242c-8.48995,0 -15.37242,-6.88247 -15.37242,-15.37242z" data-paper-data="{&quot;origPos&quot;:null}" fill="#231e23"/></g></g></svg>