<svg version="1.1" xmlns="http://www.w3.org/2000/svg" xmlns:xlink="http://www.w3.org/1999/xlink" width="132.36202" height="97.4092" viewBox="0,0,132.36202,97.4092"><g transform="translate(-194.7274,-120.27752)"><g data-paper-data="{&quot;isPaintingLayer&quot;:true}" fill="none" fill-rule="nonzero" stroke="#000000" stroke-width="1.5" stroke-linecap="round" stroke-linejoin="miter" stroke-miterlimit="10" stroke-dasharray="" stroke-dashoffset="0" font-family="none" font-weight="none" font-size="none" text-anchor="none" style="mix-blend-mode: normal"><path d="M224.84638,125.47833l19.41105,23.59774l18.93364,-22.90685l14.17793,24.18238l26.93033,-27.9823l-5.87261,56.30796l26.25402,-1.03634l-29.0176,21.41775l13.8179,17.27238l-51.47169,-14.5088l-11.05432,13.12701l-11.74522,-26.94491l-33.16297,12.78156l17.96328,-33.85387l-22.45409,-27.98126l29.70849,15.54514z" data-paper-data="{&quot;origPos&quot;:null}" fill="#ff322f"/><path d="M245.91869,161.40489l17.61783,-13.12701l8.29074,14.85425l19.69051,-6.21806l-18.65417,24.87223l11.05432,20.38141l-28.3267,-23.49044l-9.67253,13.12701l-15.54514,-21.0723l-7.94529,7.94529l6.21806,-18.30872l15.19969,9.67253z" fill="#ffbe66"/></g></g></svg>